<?xml version="1.0" encoding="UTF-8" standalone="no"?>
<!-- Created with Inkscape (http://www.inkscape.org/) -->

<svg
   width="128"
   height="128"
   viewBox="0 0 128 128"
   version="1.1"
   id="SVGRoot"
   sodipodi:docname="shards.svg"
   xml:space="preserve"
   inkscape:version="1.2.2 (b0a8486541, 2022-12-01)"
   xmlns:inkscape="http://www.inkscape.org/namespaces/inkscape"
   xmlns:sodipodi="http://sodipodi.sourceforge.net/DTD/sodipodi-0.dtd"
   xmlns="http://www.w3.org/2000/svg"
   xmlns:svg="http://www.w3.org/2000/svg"><sodipodi:namedview
     id="namedview3461"
     pagecolor="#505050"
     bordercolor="#eeeeee"
     borderopacity="1"
     inkscape:showpageshadow="0"
     inkscape:pageopacity="0"
     inkscape:pagecheckerboard="0"
     inkscape:deskcolor="#505050"
     inkscape:document-units="px"
     showgrid="false"
     inkscape:zoom="4.3752232"
     inkscape:cx="208.56079"
     inkscape:cy="570.25662"
     inkscape:window-width="1920"
     inkscape:window-height="1023"
     inkscape:window-x="0"
     inkscape:window-y="0"
     inkscape:window-maximized="1"
     inkscape:current-layer="layer1"
     showguides="true"><inkscape:grid
       type="xygrid"
       id="grid3584"
       originx="-73.13346"
       originy="343.90365" /><inkscape:page
       x="0"
       y="0"
       width="128"
       height="128"
       id="page3689"
       inkscape:label="cres" /><inkscape:page
       x="-9.1334457"
       y="192.48949"
       width="128"
       height="80"
       id="page3691"
       inkscape:label="flow" /><inkscape:page
       x="-9.133461"
       y="355.90366"
       width="128.00003"
       height="104"
       id="page3695"
       inkscape:label="grav" /><inkscape:page
       x="482.09097"
       y="8"
       width="128.00006"
       height="120"
       id="page3697"
       inkscape:label="star" /><inkscape:page
       x="159.59381"
       y="180.28571"
       width="112"
       height="128"
       id="page3699"
       inkscape:label="embr" /><inkscape:page
       x="167.59381"
       y="343.90366"
       width="96"
       height="128"
       id="page3701"
       inkscape:label="matt" /><inkscape:page
       x="500.01102"
       y="190.72949"
       width="128.0007"
       height="116.13379"
       id="page3703"
       inkscape:label="crys" /><inkscape:page
       x="171.72287"
       y="0"
       width="80.000061"
       height="128"
       id="page3705"
       inkscape:label="bolt"
       inkscape:export-filename="../../../Desktop/_/_/bolt.png"
       inkscape:export-xdpi="96"
       inkscape:export-ydpi="96" /><inkscape:page
       x="327.75262"
       y="180.28571"
       width="80"
       height="128"
       id="page3707"
       inkscape:label="flud" /><inkscape:page
       x="14.866554"
       y="505.97446"
       width="80"
       height="128.00003"
       id="page3709"
       inkscape:label="soul" /><inkscape:page
       x="318.07108"
       y="3.98738"
       width="87.999985"
       height="128"
       id="page3711"
       inkscape:label="mete"
       inkscape:export-filename="mete.png"
       inkscape:export-xdpi="96"
       inkscape:export-ydpi="96" /><inkscape:page
       x="495.28964"
       y="343.90366"
       width="127.99994"
       height="128"
       id="page3713"
       inkscape:label="void"
       inkscape:export-filename="void.png"
       inkscape:export-xdpi="96"
       inkscape:export-ydpi="96" /><inkscape:page
       x="303.75262"
       y="343.90366"
       width="127.99999"
       height="127.99999"
       id="page3727"
       inkscape:label="chao" /><inkscape:page
       x="152.65939"
       y="520.85388"
       width="127.99999"
       height="100.00002"
       id="page935"
       inkscape:label="shel"
       inkscape:export-filename="../../../Desktop/sprite/shel.png"
       inkscape:export-xdpi="96"
       inkscape:export-ydpi="96" /></sodipodi:namedview><defs
     id="defs3456" /><g
     inkscape:label="Layer 1"
     inkscape:groupmode="layer"
     id="layer1"
     transform="translate(-73.13346,343.90365)"><path
       id="path3839"
       style="fill:#9ba5ab;fill-opacity:1;stroke-opacity:0.996215"
       d="m 141.18131,-343.90365 a 64.000008,63.999985 0 0 0 -63.999999,64 64.000008,63.999985 0 0 0 63.999999,64 64.000008,63.999985 0 0 0 55.63086,-32.67773 46.507763,46.507748 0 0 1 -34.2832,15.18554 46.507763,46.507748 0 0 1 -46.50782,-46.50781 46.507763,46.507748 0 0 1 46.50782,-46.50781 46.507763,46.507748 0 0 1 34.55664,15.38476 64.000008,63.999985 0 0 0 -55.9043,-32.87695 z" /><path
       id="path4315"
       style="fill:#d6c873;fill-opacity:1;stroke-width:1.04567;stroke-opacity:0.996215"
       d="m 302.11674,-343.90365 -57.26041,68.1852 h 22.73966 v 59.8148 l 57.2604,-68.1852 h -22.73965 c 0,0 0,-42.05935 0,-59.8148 z"
       sodipodi:nodetypes="ccccccc" /><path
       style="fill:#cf1407;fill-opacity:1;stroke-width:1.38345;stroke-opacity:0.996215"
       d="m 451.72845,-211.91627 c 20.91271,0 27.47607,-15.21941 27.47607,-34.0627 0,-45.46261 -62.87856,-87.23218 -87.99901,-93.9373 -0.24292,11.08767 44.95954,32.2252 49.68057,60.01262 -18.0301,-19.47505 -28.7565,-14.36922 -28.7565,-14.36922 26.152,17.18322 24.77259,37.74686 19.03162,39.81129 -7.15021,2.57116 -12.682,-6.04864 -13.79505,-22.38814 -9.59148,0 -9.75156,64.93345 34.3623,64.93345 z"
       id="path5591"
       sodipodi:nodetypes="sscccscs" /><path
       sodipodi:type="star"
       style="fill:#c55050;fill-opacity:1;stroke-opacity:0.996215"
       id="path5824"
       inkscape:flatsided="false"
       sodipodi:sides="5"
       sodipodi:cx="546.091"
       sodipodi:cy="68"
       sodipodi:r1="60"
       sodipodi:r2="30"
       sodipodi:arg1="-1.5707971"
       sodipodi:arg2="-0.94247854"
       inkscape:rounded="0"
       inkscape:randomized="0"
       d="m 546.09096,8 17.63358,35.729477 39.42984,5.729459 -28.53167,27.811553 6.73545,39.270501 L 546.09103,98 l -35.2671,18.54105 6.73538,-39.270519 -28.53171,-27.811507 39.42983,-5.729521 z"
       transform="matrix(1.1215605,0,0,1.1055724,6.7503954,-344.74821)"
       inkscape:transform-center-x="3.5984275e-05"
       inkscape:transform-center-y="-6.3343495" /><path
       style="fill:#bababa;fill-opacity:1;stroke-width:0.999226;stroke-opacity:0.996215"
       d="m 64.189222,-80.423636 c 4.534456,3.63218 10.434962,-17.358796 32.110344,-17.358796 28.002914,0 25.964794,26.368264 58.688354,26.368264 26.07664,0 36.5773,-21.828418 37.00351,-40.000012 0.40886,-17.43242 -13.82356,-39.99998 -33.66011,-39.99998 -19.76797,0 -31.87707,8.52675 -31.87561,24.86288 0.001,16.33613 21.08808,21.62389 24.80114,19.23383 3.65026,-2.34964 -6.70772,-4.14675 -6.70772,-14.78 0,-7.16528 4.446,-10.8387 10.24107,-10.8387 10.25144,0 14.68164,9.98332 14.61782,18.21963 -0.0639,8.23631 -4.71751,20.047967 -16.60229,20.047967 -27.09731,0 -24.61949,-24.076397 -52.854484,-24.076397 -26.661209,0 -37.556285,36.884078 -35.762024,38.321314 z"
       id="path6239"
       sodipodi:nodetypes="ssssszssszsss" /><path
       id="path6733"
       style="opacity:1;fill:#d7712b;fill-opacity:1;stroke-width:1.55757;stroke-opacity:0.996215"
       d="m 286.99485,-163.61794 c -1.1546,2.17396 -2.50063,5.23229 -2.5,8.03242 -2.1e-4,24.48015 -10.69265,56.643982 -23.88281,56.645326 -9.26646,-0.03553 -17.68557,-10.015096 -21.59961,-25.603626 -4.08752,8.60096 -6.24184,18.13958 -6.28516,27.827928 7.7e-4,33.744078 25.07263,61.097943 56,61.097948 30.92737,-5e-6 55.99923,-27.35387 56,-61.097948 -0.003,-9.766818 -2.15263,-19.391548 -6.26758,-28.065238 -3.90067,15.63908 -12.33167,25.664815 -21.61719,25.706186 -13.19016,-0.001 -23.8826,-32.165176 -23.88281,-56.645316 0.003,-2.77431 -1.42622,-5.76254 -2.66601,-7.89768 z" /><path
       id="path7354"
       style="opacity:1;fill:#84a3d3;fill-opacity:1;stroke-width:0.972089;stroke-opacity:0.996215"
       d="m 480.88608,-76.484014 c 0,22.569707 -17.9086,40.866069 -39.99999,40.86607 -22.0914,5e-6 -40.00001,-18.296359 -40.00001,-40.86607 0,-22.569713 17.35214,-58.432416 46.15929,-87.133926 0,62.43733 33.84071,54.12298 33.84071,87.133926 z"
       sodipodi:nodetypes="ssscs" /><path
       id="path7489"
       style="opacity:1;fill:#91aca5;fill-opacity:1;stroke-width:1.39001;stroke-opacity:0.996215"
       d="m 638.68326,-153.04037 -20.02493,20.11674 v 40.665494 l -8.63981,-2.931641 -1.07422,8.765056 -6.93361,-9.778527 -25.52621,-6.550712 -3.3393,27.262473 22.83797,38.451117 h 85.02479 l 15.67489,-6.952828 4.46235,-9.452475 -10.56586,-5.504661 -5.28698,1.692698 15.85284,-26.686473 -3.34201,-27.265191 -25.52622,6.55073 -9.54045,16.057515 -1.87717,0.04354 v -44.366045 z"
       sodipodi:nodetypes="ccccccccccccccccccccc" /><path
       id="path7729"
       style="opacity:1;fill:#283dd5;fill-opacity:1;stroke-width:1.00019;stroke-opacity:0.996215"
       d="m 172.98782,12.065264 a 29.14479,77.15987 52.927853 0 0 -22.31232,5.576434 c -6.72501,-3.12726 -14.11727,-4.811958 -21.70276,-4.814681 -28.44923,-1.92e-4 -51.511985,23.055744 -51.511795,51.496563 0.0015,2.582089 0.205023,5.146284 0.588094,7.676144 a 29.14479,77.15987 52.927853 0 0 -11.04871,39.201066 29.14479,77.15987 52.927853 0 0 38.868791,-0.98833 c 7.11136,3.61601 15.01255,5.56928 23.10362,5.60768 28.44846,-8.8e-4 51.51003,-23.056504 51.50984,-51.49656 -0.001,-3.458623 -0.37055,-6.891505 -1.057,-10.258295 a 29.14479,77.15987 52.927853 0 0 9.57946,-37.261518 29.14479,77.15987 52.927853 0 0 -16.01722,-4.738503 z M 161.6773,22.095032 a 22.633273,59.83587 52.734521 0 1 12.39684,3.685721 22.633273,59.83587 52.734521 0 1 -1.16252,18.954015 c -1.90425,3.025735 -3.88758,6.260812 -5.98641,9.609827 A 22.633273,59.83587 52.734521 0 1 141.89905,79.49031 22.633273,59.83587 52.734521 0 1 108.792,98.82911 c -2.40231,0.802285 -4.7544,1.58459 -7.01412,2.34581 a 22.633273,59.83587 52.734521 0 1 -22.134545,-1.945401 22.633273,59.83587 52.734521 0 1 0.707273,-17.95983 c 1.675612,4.796512 4.053043,9.351921 7.098136,13.498683 12.987656,-1.899611 31.511076,-9.946863 47.567086,-22.432697 17.4048,-13.557244 29.3538,-30.095086 32.644,-41.992207 -2.62606,-2.989519 -5.57133,-5.623986 -8.75105,-7.896858 a 22.633273,59.83587 52.734521 0 1 2.76852,-0.351578 z" /><rect
       style="opacity:1;fill:#b4835b;fill-opacity:1;stroke-width:1.62029;stroke-opacity:0.996215"
       id="rect9198"
       width="79.999992"
       height="79.999992"
       x="160.60603"
       y="240.60605"
       transform="matrix(0.60000006,-0.79999995,0.60000006,0.79999995,0,0)" /><path
       id="path9430"
       style="opacity:1;fill:#3f1f3f;fill-opacity:1;stroke-width:1.00398;stroke-opacity:0.996215"
       d="M 443.80965,0.01705202 C 408.39574,-0.81360658 376.88608,28.841423 376.88608,61.170945 c 0,31.049967 11.12237,44.493645 27.87145,57.692615 11.34287,8.93866 32.70763,9.13436 42.29749,9.13644 25.31589,0.005 46.95522,-13.34064 57.25206,-34.341724 -11.35578,11.310254 -27.32426,17.759504 -44.067,17.797504 -29.46183,-0.0332 -60.18145,-19.265654 -59.31123,-46.403171 0.89649,-27.956761 28.98045,-49.499825 58.36777,-39.661337 29.38732,9.838487 25.33303,28.709928 20.00529,38.658355 -4.40651,8.228201 -10.57501,12.911818 -19.97251,5.795742 -7.44594,-5.6383 -1.86772,-10.268921 -4.46424,-18.937696 -1.98523,-6.627945 -10.92885,-8.453888 -15.5908,-8.453594 -9.32313,5.85e-4 -16.03438,8.602524 -16.20919,17.810947 -0.1748,9.20842 2.07688,18.568666 8.1011,25.330896 10.20253,11.445058 25.96169,15.303648 40.01329,11.586028 8.18304,-2.165001 15.74402,-6.697453 21.49815,-13.613329 12.02385,-14.520507 16.46226,-32.073697 7.37435,-51.0451 C 490.96416,13.552118 470.76002,0.649192 443.80965,0.01705202 Z"
       sodipodi:nodetypes="ssscccssssssscsccs" /><path
       id="rect12170"
       style="opacity:1;fill:#1a1a1a;fill-opacity:1;stroke-width:1.14286;stroke-opacity:0.996215"
       d="M 632.42196,128.00001 696.42308,63.998892 632.42196,6.1627344e-6 568.42308,63.998892 Z m 8.2e-4,-88.670083 24.66814,24.669777 L 632.42278,88.667848 607.753,63.999704 Z"
       sodipodi:nodetypes="cccccccccc" /><path
       id="path13251"
       style="opacity:1;fill:#6e3fab;fill-opacity:1;stroke-width:1.04179;stroke-opacity:0.996215"
       d="m 124.70692,162.07081 c -0.25187,0.19033 -0.50171,0.38123 -0.75103,0.57265 -23.79984,19.44622 -34.286165,43.50845 -30.269651,68.98505 -4.123408,6.67852 -6.081521,14.3975 -5.619972,22.15417 1.332514,21.35373 20.290293,37.56509 42.343143,36.20891 22.05285,-1.35618 38.8496,-19.76633 37.51643,-41.12 -0.38335,-5.24737 -1.86654,-10.36086 -4.35921,-15.02862 -0.43515,-9.80405 -2.94954,-18.55077 -7.43505,-25.86417 -4.51123,-7.0226 -12.08175,-16.88011 -19.93788,-20.7227 3.01428,5.04474 5.44224,9.60904 5.81622,18.43873 0.37398,8.82969 -3.14378,12.67906 -6.87494,12.91912 -4.97529,0.30632 -9.28019,-3.79161 -13.08067,-15.63952 -3.80047,-11.84791 -3.2693,-24.75855 2.65261,-40.90362 z m 1.85653,66.30444 c 13.09104,-0.80518 24.34486,8.81816 25.13596,21.49421 0.79135,12.67602 -9.17968,23.60463 -22.27074,24.40956 -13.09108,0.80519 -24.34491,-8.81816 -25.13599,-21.49421 -0.79133,-12.67602 9.17969,-23.60463 22.27077,-24.40956 z m 0.76593,12.27122 c -5.94333,0.36499 -10.4633,5.4432 -10.09565,11.34251 0.36775,5.90008 5.48506,10.3868 11.4291,10.02077 5.94412,-0.36505 10.46432,-5.44444 10.09555,-11.34446 -0.3688,-5.89924 -5.48571,-10.38482 -11.429,-10.01882 z"
       sodipodi:nodetypes="ccccsccccccccccccccscsc"
       inkscape:transform-center-x="-0.61300345"
       inkscape:transform-center-y="-26.411139" /><path
       id="rect431"
       style="opacity:1;fill:#2aff80;stroke-width:2.0177;stroke-opacity:0.996215"
       d="m 258.76274,176.95021 15.51463,15.09415 -48.48451,36.69498 c 0,6.61432 2.89173,13.88469 7.95891,20.731 l 3.49326,-1.20333 -2.23982,2.84237 c 3.57662,4.47437 8.09183,8.71726 13.32329,12.43178 l 3.33214,-1.8976 -1.37922,3.23475 c 5.00782,3.31501 10.61383,6.13476 16.66463,8.21565 l 2.74579,-2.73714 -0.33182,3.51658 c 6.03241,1.84113 12.46286,2.93726 19.14872,3.06317 l 1.28301,-4.24068 0.73126,4.25432 c 6.48797,-0.0695 12.74419,-1.05068 18.63157,-2.74764 l 0.0534,-3.84575 2.35707,3.10724 c 6.0871,-1.98709 11.74318,-4.72679 16.81189,-7.97175 l -0.79494,-3.50591 2.76363,2.20286 c 5.30471,-3.6439 9.88676,-7.84067 13.56696,-12.27827 l -1.57014,-2.9583 2.85164,1.35338 c 5.45861,-7.08809 8.59877,-14.68202 8.59877,-21.56673 l -48.4845,-36.69498 15.51462,-15.09415 h -31.02749 z"
       sodipodi:nodetypes="ccccccccccccccccccccccccccccc" /></g></svg>
