# Blender 3.6.4
# www.blender.org
mtllib table.mtl
o Table
v -27.977425 -0.444332 52.519020
v -27.977425 -0.444332 49.574028
v -24.050766 -0.444332 52.519020
v -24.050766 -0.444332 49.574028
v -31.904078 41.767208 56.445675
v -31.904078 45.693867 56.445675
v -31.904078 41.767208 30.922415
v -31.904078 41.767208 15.215794
v -24.050766 35.877232 51.537354
v -26.995758 35.877232 49.574028
v -25.032433 35.877232 49.574028
v -24.050766 35.877232 50.555691
v -27.977425 41.767208 52.519020
v -27.977425 41.767208 49.574028
v -24.050766 41.767208 52.519020
v -24.050766 41.767208 51.537354
v -26.995758 41.767208 49.574028
v -25.032433 41.767208 49.574028
v -24.050766 41.767208 50.555691
v -24.050766 41.767208 49.574028
v -26.995758 41.767208 30.922415
v -26.995758 41.767208 11.289139
v -27.977425 -0.444332 -49.574017
v -27.977425 -0.444332 -52.519009
v -24.050766 -0.444332 -49.574017
v -24.050766 -0.444332 -52.519009
v -31.904078 41.767208 -56.445667
v -31.904078 45.693867 -56.445667
v -26.995758 35.877232 -49.574017
v -25.032433 35.877232 -49.574017
v -24.050766 35.877232 -50.555683
v -24.050766 35.877232 -51.537350
v -27.977425 41.767208 -49.574017
v -27.977425 41.767208 -52.519009
v -26.995758 41.767208 -49.574017
v -25.032433 41.767208 -49.574017
v -24.050766 41.767208 -49.574017
v -24.050766 41.767208 -50.555683
v -24.050766 41.767208 -51.537350
v -24.050766 41.767208 -52.519009
v 24.050762 -0.444332 52.519020
v 24.050762 -0.444332 49.574028
v 27.977413 -0.444332 52.519020
v 27.977413 -0.444332 49.574028
v 24.050762 35.877232 51.537354
v 24.050762 35.877232 50.555691
v 25.032421 35.877232 49.574028
v 26.995754 35.877232 49.574028
v 24.050762 41.767208 52.519020
v 24.050762 41.767208 51.537354
v 24.050762 41.767208 50.555691
v 24.050762 41.767208 49.574028
v 25.032421 41.767208 49.574028
v 26.995754 41.767208 49.574028
v 27.977413 41.767208 52.519020
v 27.977413 41.767208 49.574028
v 31.904072 41.767208 56.445675
v 31.904072 45.693867 56.445675
v 24.050762 -0.444332 -49.574017
v 24.050762 -0.444332 -52.519009
v 27.977413 -0.444332 -49.574017
v 27.977413 -0.444332 -52.519009
v 24.050762 35.877232 -50.555683
v 25.032421 35.877232 -49.574017
v 26.995754 35.877232 -49.574017
v 24.050762 35.877232 -51.537350
v 24.050762 41.767208 -49.574017
v 24.050762 41.767208 -50.555683
v 25.032421 41.767208 -49.574017
v 26.995754 41.767208 -49.574017
v 24.050762 41.767208 -51.537350
v 24.050762 41.767208 -52.519009
v 27.977413 41.767208 -49.574017
v 27.977413 41.767208 -52.519009
v 31.904072 41.767208 -56.445667
v 31.904072 45.693867 -56.445667
vn -0.0000 -1.0000 -0.0000
vn 1.0000 -0.0000 -0.0000
vn -0.0000 -0.0000 1.0000
vn -1.0000 -0.0000 -0.0000
vn -0.0000 -0.0000 -1.0000
vn -0.0000 1.0000 -0.0000
vt 1.000000 0.000000
vt 0.000000 1.000000
vt 0.000000 0.000000
vt 0.853553 0.146447
vt 0.146447 0.146447
vt 0.146447 0.853553
vt 0.933013 0.750000
vt 0.500000 0.000000
vt 0.066987 0.250000
vt 1.000000 0.500000
vt 0.000000 0.500000
vt 0.987464 0.611260
vt 0.049515 0.283058
vt 0.853553 0.853553
vt 0.933013 0.250000
vt 0.066987 0.750000
vt 0.750000 0.066987
vt 0.066987 0.250000
vt 0.250000 0.933013
vt 1.000000 1.000000
vt 0.500000 1.000000
vt 0.388740 0.987464
vt 0.611260 0.987464
vt 0.283059 0.950485
vt 0.811745 0.890916
vt 0.890916 0.811745
vt 0.950484 0.716942
vt 0.987464 0.388740
vt 0.950484 0.283058
vt 0.890916 0.188255
vt 0.811745 0.109084
vt 0.611260 0.012536
vt 0.500000 0.000000
vt 0.388739 0.012536
vt 0.283058 0.049516
vt 0.188255 0.109085
vt 0.012536 0.388740
vt 0.000000 0.500000
vt 0.012536 0.611261
vt 0.049516 0.716942
vt 0.109085 0.811745
vt 0.716942 0.049515
vt 0.188256 0.890916
vt 0.109084 0.188255
vt 0.716942 0.950484
vt 0.750000 0.933013
vt 0.000000 0.500000
vt 0.066987 0.750000
vt 0.500000 0.000000
vt 0.250000 0.066987
s 0
usemtl wood_a
f 43/1/1 42/2/1 44/3/1
f 18/1/2 30/2/2 36/3/2
f 1/1/3 15/2/3 13/3/3
f 2/1/4 13/2/4 14/3/4
f 21/1/1 8/2/1 22/3/1
f 58/1/3 5/2/3 57/3/3
f 46/1/5 19/2/5 51/3/5
f 54/1/2 65/2/2 70/3/2
f 29/4/3 33/5/3 25/6/3
f 25/1/1 24/2/1 26/3/1
f 10/7/4 21/8/4 22/9/4
f 48/10/5 44/5/5 42/11/5
f 73/12/1 74/10/1 57/13/1
f 24/1/4 33/2/4 34/3/4
f 26/1/5 34/2/5 40/3/5
f 31/1/3 68/2/3 38/3/3
f 49/1/3 43/2/3 55/3/3
f 4/14/5 10/5/5 11/11/5
f 9/4/2 15/5/2 4/6/2
f 75/1/5 28/2/5 76/3/5
f 11/1/1 29/2/1 30/3/1
f 55/1/2 44/2/2 56/3/2
f 16/1/3 45/2/3 50/3/3
f 76/1/2 57/2/2 75/3/2
f 60/14/4 63/5/4 66/11/4
f 7/15/4 6/9/4 28/16/4
f 63/1/1 32/2/1 66/3/1
f 64/1/4 53/2/4 69/3/4
f 74/1/2 61/2/2 62/3/2
f 31/4/2 37/5/2 26/6/2
f 62/1/5 72/2/5 74/3/5
f 37/17/1 67/18/1 52/19/1
f 28/1/6 58/2/6 76/3/6
f 64/4/3 67/5/3 61/6/3
f 41/4/4 45/11/4 46/6/4
f 71/1/5 32/2/5 39/3/5
f 45/1/1 12/2/1 46/3/1
f 48/1/1 64/2/1 65/3/1
f 2/1/1 3/2/1 1/3/1
f 61/1/1 60/2/1 62/3/1
f 43/1/1 41/20/1 42/2/1
f 18/1/2 11/20/2 30/2/2
f 1/1/3 3/20/3 15/2/3
f 2/1/4 1/20/4 13/2/4
f 21/1/1 7/20/1 8/2/1
f 58/1/3 6/20/3 5/2/3
f 46/1/5 12/20/5 19/2/5
f 54/1/2 48/20/2 65/2/2
f 25/6/3 37/21/3 36/14/3
f 25/6/3 36/14/3 30/10/3
f 33/5/3 23/11/3 25/6/3
f 29/4/3 35/8/3 33/5/3
f 25/6/3 30/10/3 29/4/3
f 25/1/1 23/20/1 24/2/1
f 35/16/4 29/21/4 10/7/4
f 10/7/4 17/15/4 21/8/4
f 22/9/4 35/16/4 10/7/4
f 52/6/5 53/21/5 47/14/5
f 48/10/5 54/4/5 56/8/5
f 42/11/5 52/6/5 47/14/5
f 48/10/5 56/8/5 44/5/5
f 42/11/5 47/14/5 48/10/5
f 16/22/1 50/21/1 49/23/1
f 15/24/1 16/22/1 49/23/1
f 56/25/1 54/26/1 70/27/1
f 56/25/1 70/27/1 73/12/1
f 72/28/1 71/29/1 39/30/1
f 72/28/1 39/30/1 40/31/1
f 33/32/1 35/33/1 22/34/1
f 22/34/1 8/35/1 27/36/1
f 5/37/1 7/38/1 21/39/1
f 21/39/1 17/40/1 14/41/1
f 5/37/1 21/39/1 14/41/1
f 33/32/1 22/34/1 27/36/1
f 34/42/1 33/32/1 27/36/1
f 5/37/1 14/41/1 13/43/1
f 5/37/1 13/43/1 15/24/1
f 34/42/1 27/36/1 75/44/1
f 40/31/1 34/42/1 75/44/1
f 57/13/1 5/37/1 15/24/1
f 57/13/1 15/24/1 49/23/1
f 72/28/1 40/31/1 75/44/1
f 74/10/1 72/28/1 75/44/1
f 57/13/1 49/23/1 55/45/1
f 57/13/1 55/45/1 56/25/1
f 74/10/1 75/44/1 57/13/1
f 57/13/1 56/25/1 73/12/1
f 24/1/4 23/20/4 33/2/4
f 26/1/5 24/20/5 34/2/5
f 31/1/3 63/20/3 68/2/3
f 49/1/3 41/20/3 43/2/3
f 18/6/5 20/21/5 4/14/5
f 4/14/5 2/10/5 14/4/5
f 14/4/5 17/8/5 10/5/5
f 11/11/5 18/6/5 4/14/5
f 4/14/5 14/4/5 10/5/5
f 4/6/2 20/21/2 19/14/2
f 4/6/2 19/14/2 12/10/2
f 15/5/2 3/11/2 4/6/2
f 9/4/2 16/8/2 15/5/2
f 4/6/2 12/10/2 9/4/2
f 75/1/5 27/20/5 28/2/5
f 11/1/1 10/20/1 29/2/1
f 55/1/2 43/20/2 44/2/2
f 16/1/3 9/20/3 45/2/3
f 76/1/2 58/20/2 57/2/2
f 71/6/4 72/21/4 60/14/4
f 60/14/4 59/10/4 67/4/4
f 67/4/4 68/8/4 63/5/4
f 66/11/4 71/6/4 60/14/4
f 60/14/4 67/4/4 63/5/4
f 28/16/4 27/21/4 8/7/4
f 7/15/4 5/8/4 6/9/4
f 28/16/4 8/7/4 7/15/4
f 63/1/1 31/20/1 32/2/1
f 64/1/4 47/20/4 53/2/4
f 74/1/2 73/20/2 61/2/2
f 26/6/2 40/21/2 39/14/2
f 26/6/2 39/14/2 32/10/2
f 37/5/2 25/11/2 26/6/2
f 31/4/2 38/8/2 37/5/2
f 26/6/2 32/10/2 31/4/2
f 62/1/5 60/20/5 72/2/5
f 52/19/1 51/21/1 19/46/1
f 20/7/1 18/10/1 36/15/1
f 52/19/1 19/46/1 20/7/1
f 69/47/1 53/48/1 52/19/1
f 38/49/1 68/50/1 67/18/1
f 67/18/1 69/47/1 52/19/1
f 52/19/1 20/7/1 36/15/1
f 37/17/1 38/49/1 67/18/1
f 52/19/1 36/15/1 37/17/1
f 28/1/6 6/20/6 58/2/6
f 61/6/3 73/21/3 70/14/3
f 61/6/3 70/14/3 65/10/3
f 67/5/3 59/11/3 61/6/3
f 64/4/3 69/8/3 67/5/3
f 61/6/3 65/10/3 64/4/3
f 46/6/4 51/21/4 52/14/4
f 52/14/4 42/10/4 41/4/4
f 41/4/4 49/8/4 50/5/4
f 41/4/4 50/5/4 45/11/4
f 46/6/4 52/14/4 41/4/4
f 71/1/5 66/20/5 32/2/5
f 45/1/1 9/20/1 12/2/1
f 48/1/1 47/20/1 64/2/1
f 2/1/1 4/20/1 3/2/1
f 61/1/1 59/20/1 60/2/1
