# Made in Blockbench 5.0.7
mtllib treg.mtl

o plane
v -0.062499999999995115 0.06249999999998401 -8.562499999999984
v -0.062499999999996 16.062499999999986 -8.562500000000016
v -0.062500000000004 0.06250000000001599 7.437500000000016
v -0.06250000000000488 16.062500000000014 7.437499999999984
vt 1 0
vt 1 1
vt 0 1
vt 0 0
vn 1 5.551115123125894e-17 5.551115123125782e-16
usemtl m_aaca56d7-5035-5df9-adea-7d72121ced08
f 1/1/1 2/2/1 4/3/1 3/4/1
o plane
v 8.5 0.0625 1.7763568394002505e-15
v 8.5 16.0625 -1.7763568394002505e-15
v -7.5 0.0625 1.7763568394002505e-15
v -7.5 16.0625 -1.7763568394002505e-15
vt 1 0
vt 1 1
vt 0 1
vt 0 0
vn 0 2.220446049250313e-16 1
usemtl m_aaca56d7-5035-5df9-adea-7d72121ced08
f 5/5/2 6/6/2 8/7/2 7/8/2